<svg xmlns="http://www.w3.org/2000/svg"><symbol id="facebook-icon-white" viewBox="0 0 256 256"><path fill="#fffffe" d="M234.2 39.1a21.4 21.4 0 0 0-21.3-17.6H43.1a23 23 0 0 0-5.8.7 21.5 21.5 0 0 0-15.8 20.9v169.8a19.9 19.9 0 0 0 2.6 10.4c4.2 7.4 10.7 11.2 19.2 11.2h169.3a20.8 20.8 0 0 0 4.3-.3 21.4 21.4 0 0 0 17.6-21.2V43.1a26 26 0 0 0-.3-4zM195.3 79h-14.8a19.9 19.9 0 0 0-4.2.4c-3.4.8-5.1 2.7-5.5 6.1s-.2 4.3-.2 6.5v10.7c0 .6.1.8.8.8h20.7c.8 0 .9.2.9.9-.3 5.5-.5 11.1-.8 16.6l-.3 6.5c0 .6-.3.5-.7.5h-18.6c-.8 0-.9.2-.9.9v72.7c0 .8-.2 1-1 1h-32.3c-.7 0-.8-.1-.8-.9v-72.8c0-.7-.2-.9-.9-.9h-11.1c-.6 0-.8-.1-.8-.7v-24.2c0-.6.2-.7.7-.7h11.2c.7 0 .9-.2.9-.9 0-5.7-.1-11.3 0-17a45 45 0 0 1 2.4-14.4c2.7-7.5 8-12.2 15.6-14.6a51.5 51.5 0 0 1 15.1-2.1h24.7c.6 0 .8.2.8.9 0 7.9-.1 15.9 0 23.8 0 .8-.3.9-.9.9z"/></symbol><symbol id="instagram-icon-white" viewBox="0 0 256 256"><path fill="#fffffe" d="M228.8 128.9V82.1a58.3 58.3 0 0 0-1.2-11.8 56.2 56.2 0 0 0-17.1-30.6 55.9 55.9 0 0 0-24-13.7 24.4 24.4 0 0 0-2.6-.6l-1.3-.3a63.8 63.8 0 0 0-10.8-1.1H78.3a56.7 56.7 0 0 0-10.1 1 55.4 55.4 0 0 0-31.8 17.3C26.3 53.2 20.9 66.1 20.8 80.9c-.1 31.2 0 62.4 0 93.6v1.3c.1.8.1 1.7.2 2.5s.2 2.6.4 3.8a21.7 21.7 0 0 0 .4 2.5c.2 1.4.5 2.8.8 4.1a55.4 55.4 0 0 0 7.5 17 57.1 57.1 0 0 0 6.5 8.2l1.1 1.1a62.3 62.3 0 0 0 5.5 4.9l2.3 1.8 1.2.8a48.5 48.5 0 0 0 4.9 2.9c2.1 1.1 4.2 2.1 6.4 3l2.7.9 4.1 1.1 4.2.8 4.4.6h100.4l3.9-.3 2.4-.3 1.2-.3a56 56 0 0 0 22-8.8 55 55 0 0 0 8.7-7.4l.9-.8a56.6 56.6 0 0 0 15.9-39.4c.1-15.1 0-30.3 0-45.6zm-104.1 56.9a57.8 57.8 0 1 1 57.8-57.8 57.8 57.8 0 0 1-57.8 57.8zM194 70.2a11.6 11.6 0 1 1 .3-23.1 11.6 11.6 0 1 1-.3 23.1z"/><path fill="#fffffe" d="M159.5 128a34.7 34.7 0 1 1-34.7-34.7 34.9 34.9 0 0 1 34.7 34.7z"/></symbol><symbol id="twitter-icon-white" viewBox="0 0 256 256"><path fill="#fffffe" d="M53.7 171.8zm6.1-63.9l1.7.6zm10.8 29.6l3 .7zm2.7-25.7l-3.9-.7 3.9.7zm2.4-29.7a.2.2 0 0 0 .2.2c0 .1.1.1.2.2l1.5 1.3zM88.2 91l3.8 2.1zm62.7-26.4l-1.2.3 1.2-.3zm22.2 3.8l2.2 1.5zm5.8 4.8l-.6-.6.6.6zm6.2 45.7c.5-1.7.8-3.4 1.2-5.1-.4 1.7-.7 3.4-1.2 5.1zm-.2-35.7l4.5-1zm1.8 28c-.1.9-.3 1.8-.4 2.6.1-.8.3-1.7.4-2.6l.3-1.7zm7-42.4l.4-.3.7-.3zm-.6.3l.3-.2h.3l-1.2.6zm2.3-1.3l-.4.3.4-.2zm1.8-.9l-1.6.8a.5.5 0 0 0 .4-.2l1.2-.6c0-.1.1-.1.2-.2zm-5.7 2.9l.4-.2h.3zm-31.9-5.7zM156 64z"/><path fill="#fffffe" d="M234.7 43.1a19.9 19.9 0 0 0-.4-4.2 21.3 21.3 0 0 0-21.2-17.6H42.9a22.8 22.8 0 0 0-7.7 1.4A21.3 21.3 0 0 0 21.3 43v169.8a22.5 22.5 0 0 0 .4 4.4A21.3 21.3 0 0 0 43 234.7h170a19.6 19.6 0 0 0 4.1-.4 21.3 21.3 0 0 0 17.6-21.4zm-33.4 36.7l-1.1 1.6a80.9 80.9 0 0 1-11.6 11.8h-.2a2.2 2.2 0 0 0-.7 1.7c.1 3.1 0 6.2-.2 9.3a21.1 21.1 0 0 1-.2 2.6l-.3 2.6-.3 1.7c-.1.9-.3 1.8-.4 2.6s-.7 3.4-1.2 5.1a90.9 90.9 0 0 1-4 12.5 93.8 93.8 0 0 1-16.1 26 76.2 76.2 0 0 1-6.3 6.4l-2.2 1.9-1.1 1-2.3 1.8-2.3 1.7-1.2.8-2.3 1.5-2.3 1.5-4.8 2.6-2.5 1.1-2.5 1.2-2.6 1-2.6.9-4.3 1.4a89.9 89.9 0 0 1-29.2 3.4h-3.3l-2.8-.3-2.8-.4-1.8-.3-2.6-.4-5-1.2a92.5 92.5 0 0 1-12.1-4.4l-6-2.9-6-3.2-.3-.2v-.2h9.8l3.4-.3h.6l1.8-.2h.8l1.8-.3 5.5-1.3 4.3-1.4 2.8-1.1A75.6 75.6 0 0 0 99 159c-14.3-.8-23.2-8.6-28.6-21.2l.2-.3 3 .7c3.5 1 6.9.4 10.3-.6l-1.2-.3a36.5 36.5 0 0 1-10.3-5l-1.6-1.3-2.4-2.2a15.4 15.4 0 0 1-1.7-1.9 28.7 28.7 0 0 1-6.9-19l1.7.6a48.4 48.4 0 0 0 4.9 1.8l1.7.5 1.3.3 3.9.7-.2-.2-.2-.2a43.2 43.2 0 0 1-9.8-12.2 31 31 0 0 1-3.3-14v-1.3a30.3 30.3 0 0 1 .2-3.1 6.9 6.9 0 0 0 .2-1.3 3.6 3.6 0 0 0 .2-1l.3-1.1a18.9 18.9 0 0 1 2.1-5.1l.7-1.2.5-.6a114.9 114.9 0 0 0 9.7 10l.9.7.6.5.3.3h.2l1.9 1.7 1.3 1 1.8 1.3a74.3 74.3 0 0 0 7.5 5l3.8 2.1a87.3 87.3 0 0 0 35 9.4c-.2-1-.3-1.9-.5-2.8-1.6-7-.1-13.6 3.3-19.8a29.9 29.9 0 0 1 10.9-11.4l1.4-.9 1-.5 1.6-.7 1.6-.6 1.1-.3 2.3-.6 1.2-.3h.6l1.1-.2H163l.9.2 2.1.5.8.3 2.5.9 1.5.8a16.7 16.7 0 0 1 2.3 1.2l2.2 1.5 1.1.9.6.5 1.3 1.3.6.6h.1l.7.2 4.6-1 3.4-1.1 2.4-.9.7-.3c0-.1.1-.1.2-.1l.5-.3.7-.3h.3l1.2-.6 1.1-.6h.2l.4-.3h.2l1.6-.8.2-.2 1-.6c-2.3 7.6-7.4 12.7-13.6 16.9v.2l4.5-.9 1.1-.2 2.2-.6 1.1-.3 4.3-1.4 4.3-1.6h.1z"/><path fill="#000001" d="M59.3 171.8zm2.2-63.3l-1.7-.6zm12.1 29.7l-3-.7zm-.3-26.4l-3.9-.7 3.9.7zM92 93.1L88.2 91zm59.5-28.6h-.6l-1.2.3 1.2-.3zm2.5-.3zm1.7-.2zm1.8 0zm1.6 0zm1.6.2zm14.6 5.7l-2.2-1.5zm3.7 3.4h-.1l-.6-.6.6.6zm7.3 40.5c-.4 1.7-.7 3.4-1.2 5.1.5-1.7.8-3.4 1.2-5.1zm.7-4.3l-.3 1.7c-.1.9-.3 1.8-.4 2.6.1-.8.3-1.7.4-2.6zm2.4-27.2l-4.5 1zm2.1-12.5l.7-.3h-.3l-.9.5zm3.3-1.6l-.7.3-.4.3zm.6-.4l-.4.2zm.2-.1zm0 0a.5.5 0 0 0 .4-.2.5.5 0 0 1-.4.2zm1.8-1c-.1.1-.2.1-.2.2l-1.2.6 1.2-.6z"/></symbol></svg>