<svg id="Layer_1" data-name="Layer 1" xmlns="http://www.w3.org/2000/svg" width="64" height="64" viewBox="0 0 64 64"><title>logo-64</title><path d="M62.3,6.6a1.2,1.2,0,0,1,.4.8,1.9,1.9,0,0,1-.2.7l-18.7,45a1.3,1.3,0,0,1-1.2.9,1.1,1.1,0,0,1-.8-.3.6.6,0,0,1-.5-.6L22.7,8.3a1.9,1.9,0,0,1-.2-.8,1.1,1.1,0,0,1,.4-.9,1,1,0,0,1,.9-.4,1.6,1.6,0,0,1,1.5,1.1L42.6,49,60,7.1a1.5,1.5,0,0,1,1.3-.9A1.3,1.3,0,0,1,62.3,6.6Z" fill="#009444"/><path d="M19.6,7.6l.3.7a1.4,1.4,0,0,1-.8,1.8l-.4.2-.5.2a22.8,22.8,0,1,0,17.5,42l.6-.3h.3a1.1,1.1,0,0,1,1.1,0,1.4,1.4,0,0,1,.8.7l.3.7a.9.9,0,0,1-.4,1.1l-1.5.7A25.8,25.8,0,0,1,16.8,7.8l1.8-.7A.9.9,0,0,1,19.6,7.6Z" fill="#f7941d"/><path d="M27.6,34.7h.2C27.8,34.6,27.7,34.6,27.6,34.7Zm-2.1-1.4h0Z" fill="#f7941d"/><path d="M25.5,33.3h0Z" fill="#f7941d"/><path d="M25.1,28.7a.1.1,0,0,1,.1.1h-.1Z" fill="#f7941d"/><path d="M20.4,11.3a3.1,3.1,0,0,0-2.6.6l-6.6,5.5a2.6,2.6,0,0,0-1,2.3v.4l-.4.2a2.5,2.5,0,0,0-1.7,1.9l-2.2,8a2.6,2.6,0,0,0,.6,2.4l.3.3-.3.3a2.8,2.8,0,0,0-.3,2.5l3.2,7.5a2.6,2.6,0,0,0,1.9,1.6h.5a.8.8,0,0,0-.1.4,2.6,2.6,0,0,0,1.4,2.1l7.2,4.1a3,3,0,0,0,2.6.2h0l.4-.2.2.3a2.7,2.7,0,0,0,2.4.9l8.6-.9.9-.2a2.8,2.8,0,0,0,1.3-1.1,3.6,3.6,0,0,0,.4-.9,1.3,1.3,0,0,0,.1-.6,3,3,0,0,0-.2-1L31.9,35.7a3.5,3.5,0,0,0-.5-.8,2.7,2.7,0,0,0-2.3-.8l-1.3.4h-.2c.1-.1.2-.1.2-.2a2.4,2.4,0,0,0-.9-.8,2.8,2.8,0,0,0-1.2-.4h0a5,5,0,0,0-.2-1.2,2.5,2.5,0,0,0-.8-1,2.4,2.4,0,0,0,.6-1.1,2,2,0,0,0,.1-1.3h-.2a.1.1,0,0,0-.1-.1h.7l.8-.5a2.8,2.8,0,0,0,1-2.2,2.9,2.9,0,0,0-.2-.9L22.3,12.8a3.5,3.5,0,0,0-.5-.8l-.5-.4ZM21.2,50,14,45.9a1.2,1.2,0,0,1-.6-.8,1.4,1.4,0,0,1,.5-1l10.7-8.9h.1L25,35a1.2,1.2,0,0,1,1,.1,1.2,1.2,0,0,1,.5,1.2L23,49.3c0,.1-.1.1-.1.2a.9.9,0,0,1-.6.6A1.4,1.4,0,0,1,21.2,50Zm9.1-13.6,5.1,12.2a1.2,1.2,0,0,1-.1,1,1.1,1.1,0,0,1-.9.5l-8.6.9a1.3,1.3,0,0,1-1-.4,1,1,0,0,1-.2-.9l3.5-13.1a1.4,1.4,0,0,1,.7-.8h.4A1,1,0,0,1,30.3,36.4Zm-6.4-3.6a1,1,0,0,1-.3,1.2h0L12.8,42.9a1,1,0,0,1-1,.3,1,1,0,0,1-.8-.6L7.8,35a1.2,1.2,0,0,1,.1-1,1.3,1.3,0,0,1,.6-.4h.3l14-1.4A.9.9,0,0,1,23.9,32.8Zm-.7-4.4a1.1,1.1,0,0,1,.5,1.2,1.2,1.2,0,0,1-1,.9l-14,1.4a1.1,1.1,0,0,1-.9-.4.8.8,0,0,1-.3-.9l2.2-8.1a1.8,1.8,0,0,1,.7-.8h1.1ZM20.7,13.5l5.1,12.1a1,1,0,0,1-.3,1.3,1.4,1.4,0,0,1-1.4.2L12.4,20.4a1.5,1.5,0,0,1-.6-.9,1.2,1.2,0,0,1,.5-.9l6.6-5.5.3-.2h.7A1,1,0,0,1,20.7,13.5Z" fill="#f7941d"/><path d="M25.1,28.7a.1.1,0,0,1,.1.1h-.1Z" fill="#f7941d"/><path d="M27.6,34.7h.2C27.8,34.6,27.7,34.6,27.6,34.7Z" fill="#f7941d"/><path d="M62.3,6.6a1.2,1.2,0,0,1,.4.8,1.9,1.9,0,0,1-.2.7l-18.7,45a1.3,1.3,0,0,1-1.2.9,1.1,1.1,0,0,1-.8-.3.6.6,0,0,1-.5-.6L22.7,8.3a1.9,1.9,0,0,1-.2-.8,1.1,1.1,0,0,1,.4-.9,1,1,0,0,1,.9-.4,1.6,1.6,0,0,1,1.5,1.1L42.6,49,60,7.1a1.5,1.5,0,0,1,1.3-.9A1.3,1.3,0,0,1,62.3,6.6Z" fill="#009444"/><path d="M19.6,7.6l.3.7a1.4,1.4,0,0,1-.8,1.8l-.4.2-.5.2a22.8,22.8,0,1,0,17.5,42l.6-.3h.3a1.1,1.1,0,0,1,1.1,0,1.4,1.4,0,0,1,.8.7l.3.7a.9.9,0,0,1-.4,1.1l-1.5.7A25.8,25.8,0,0,1,16.8,7.8l1.8-.7A.9.9,0,0,1,19.6,7.6Z" fill="#f7941d"/><path d="M27.6,34.7h.2C27.8,34.6,27.7,34.6,27.6,34.7Zm-2.1-1.4h0Z" fill="#f7941d"/><path d="M25.5,33.3h0Z" fill="#f7941d"/><path d="M25.1,28.7a.1.1,0,0,1,.1.1h-.1Z" fill="#f7941d"/><path d="M20.4,11.3a3.1,3.1,0,0,0-2.6.6l-6.6,5.5a2.6,2.6,0,0,0-1,2.3v.4l-.4.2a2.5,2.5,0,0,0-1.7,1.9l-2.2,8a2.6,2.6,0,0,0,.6,2.4l.3.3-.3.3a2.8,2.8,0,0,0-.3,2.5l3.2,7.5a2.6,2.6,0,0,0,1.9,1.6h.5a.8.8,0,0,0-.1.4,2.6,2.6,0,0,0,1.4,2.1l7.2,4.1a3,3,0,0,0,2.6.2h0l.4-.2.2.3a2.7,2.7,0,0,0,2.4.9l8.6-.9.9-.2a2.8,2.8,0,0,0,1.3-1.1,3.6,3.6,0,0,0,.4-.9,1.3,1.3,0,0,0,.1-.6,3,3,0,0,0-.2-1L31.9,35.7a3.5,3.5,0,0,0-.5-.8,2.7,2.7,0,0,0-2.3-.8l-1.3.4h-.2c.1-.1.2-.1.2-.2a2.4,2.4,0,0,0-.9-.8,2.8,2.8,0,0,0-1.2-.4h0a5,5,0,0,0-.2-1.2,2.5,2.5,0,0,0-.8-1,2.4,2.4,0,0,0,.6-1.1,2,2,0,0,0,.1-1.3h-.2a.1.1,0,0,0-.1-.1h.7l.8-.5a2.8,2.8,0,0,0,1-2.2,2.9,2.9,0,0,0-.2-.9L22.3,12.8a3.5,3.5,0,0,0-.5-.8l-.5-.4ZM21.2,50,14,45.9a1.2,1.2,0,0,1-.6-.8,1.4,1.4,0,0,1,.5-1l10.7-8.9h.1L25,35a1.2,1.2,0,0,1,1,.1,1.2,1.2,0,0,1,.5,1.2L23,49.3c0,.1-.1.1-.1.2a.9.9,0,0,1-.6.6A1.4,1.4,0,0,1,21.2,50Zm9.1-13.6,5.1,12.2a1.2,1.2,0,0,1-.1,1,1.1,1.1,0,0,1-.9.5l-8.6.9a1.3,1.3,0,0,1-1-.4,1,1,0,0,1-.2-.9l3.5-13.1a1.4,1.4,0,0,1,.7-.8h.4A1,1,0,0,1,30.3,36.4Zm-6.4-3.6a1,1,0,0,1-.3,1.2h0L12.8,42.9a1,1,0,0,1-1,.3,1,1,0,0,1-.8-.6L7.8,35a1.2,1.2,0,0,1,.1-1,1.3,1.3,0,0,1,.6-.4h.3l14-1.4A.9.9,0,0,1,23.9,32.8Zm-.7-4.4a1.1,1.1,0,0,1,.5,1.2,1.2,1.2,0,0,1-1,.9l-14,1.4a1.1,1.1,0,0,1-.9-.4.8.8,0,0,1-.3-.9l2.2-8.1a1.8,1.8,0,0,1,.7-.8h1.1ZM20.7,13.5l5.1,12.1a1,1,0,0,1-.3,1.3,1.4,1.4,0,0,1-1.4.2L12.4,20.4a1.5,1.5,0,0,1-.6-.9,1.2,1.2,0,0,1,.5-.9l6.6-5.5.3-.2h.7A1,1,0,0,1,20.7,13.5Z" fill="#f7941d"/><path d="M25.1,28.7a.1.1,0,0,1,.1.1h-.1Z" fill="#f7941d"/><path d="M27.6,34.7h.2C27.8,34.6,27.7,34.6,27.6,34.7Z" fill="#f7941d"/></svg>