<svg id="Layer_1" data-name="Layer 1" xmlns="http://www.w3.org/2000/svg" width="256" height="256" viewBox="0 0 256 256"><title>logo-256</title><path d="M250,35a4.6,4.6,0,0,1,1.5,3.6,11.2,11.2,0,0,1-.5,2.7L175.9,221.8c-1.1,2.4-2.8,3.6-5.2,3.6a5.5,5.5,0,0,1-3.2-1,4.7,4.7,0,0,1-2-2.6L91,42.1a6.7,6.7,0,0,1-.8-3.3,5.1,5.1,0,0,1,1.5-3.7,5,5,0,0,1,3.7-1.5c2.7,0,4.7,1.5,6,4.4L171,205.4,240.8,37.2c1.3-2.4,3-3.6,5.2-3.6A5.7,5.7,0,0,1,250,35Z" fill="#009444"/><path d="M78.5,39.1l1.2,2.8a5.6,5.6,0,0,1-3.3,7.5l-1.3.5-2.3.9a91.4,91.4,0,0,0,70.4,168.6l2.2-1,1.4-.6a5.4,5.4,0,0,1,4.5-.1,5.7,5.7,0,0,1,3.1,3l1.2,2.8a3.3,3.3,0,0,1-1.6,4.2l-6.2,2.9A103.6,103.6,0,0,1,9.7,167.5C-7.1,116.9,18.1,61.1,67.2,40c2.4-1,4.8-2,7.2-2.8A3.4,3.4,0,0,1,78.5,39.1Z" fill="#f7941d"/><path d="M110.8,147.8v.2l.8-.5v-.2Zm-8.5-5.4v.4h.5a.4.4,0,0,0,.1-.3Z" fill="#f7941d"/><path d="M102.3,142.4v.4h.5a.4.4,0,0,0,.1-.3Z" fill="#f7941d"/><path d="M100.8,123.8v.4l1-.2-.2-.5Z" fill="#f7941d"/><path d="M81.6,53.8a12,12,0,0,0-10.1,2.6L44.7,78.6a11.1,11.1,0,0,0-4.1,9.2,4.1,4.1,0,0,0,.3,1.6l-1.7.6a11.3,11.3,0,0,0-6.9,7.7l-8.7,32.4a9.7,9.7,0,0,0,2.2,9.5,6.8,6.8,0,0,0,1.2,1.2l-1.1,1.3a10.6,10.6,0,0,0-1,9.9l12.7,30.3a10.5,10.5,0,0,0,7.7,6.2l1.7.2a8.6,8.6,0,0,0,0,1.6,10.3,10.3,0,0,0,5.2,8.4l29.2,16.5a11.3,11.3,0,0,0,10.3.5h0l1.6-.8a6.4,6.4,0,0,0,1,1.3,10.8,10.8,0,0,0,9.5,3.6l34.6-3.5a10.6,10.6,0,0,0,3.5-.9,11.6,11.6,0,0,0,5.4-4.4,9.2,9.2,0,0,0,1.5-3.6,10.7,10.7,0,0,0,.3-2.5,10,10,0,0,0-.8-3.8l-20.4-49a10.2,10.2,0,0,0-2.2-3.2,11.2,11.2,0,0,0-9.1-3.2,13.9,13.9,0,0,0-5.1,1.6v.2l-.8.5v-.2l.7-.5a11.8,11.8,0,0,0-3.6-3.4,11.4,11.4,0,0,0-5-1.4.4.4,0,0,1-.1.3h-.5v-.4h.6a9.3,9.3,0,0,0-.8-4.9,10.9,10.9,0,0,0-2.9-4.1,11.5,11.5,0,0,0,2.4-4.5,10.6,10.6,0,0,0,.2-5l-1,.2v-.4l.8-.3.2.5,1.5-.5a12.7,12.7,0,0,0,3.1-2,10.6,10.6,0,0,0,4.2-8.7,8.4,8.4,0,0,0-.8-3.8L89.4,60.1A8.5,8.5,0,0,0,87.3,57a10.6,10.6,0,0,0-2-1.7A11.1,11.1,0,0,0,81.6,53.8Zm3.5,155.8L55.9,193a3.7,3.7,0,0,1-2.1-3.3,4.6,4.6,0,0,1,1.6-3.8l43.3-35.8h.1l.3-.3,1-.5a4.5,4.5,0,0,1,4.1.3,4,4,0,0,1,2,4.7L92.1,206.7l-.3.7a5.3,5.3,0,0,1-2.5,2.4A4.7,4.7,0,0,1,85.1,209.6Zm36.5-54.8L142,203.7a4.1,4.1,0,0,1-.4,4,4.5,4.5,0,0,1-3.6,2.2l-34.6,3.5a4.7,4.7,0,0,1-3.9-1.5,4.2,4.2,0,0,1-.9-3.9l14.1-52.3a4.8,4.8,0,0,1,2.8-3.2l1.5-.3A4.3,4.3,0,0,1,121.6,154.8ZM95.8,140.2a4.2,4.2,0,0,1-1.3,5,.1.1,0,0,1-.1.1L51.1,181.1a4.4,4.4,0,0,1-4.1,1,4,4,0,0,1-3.1-2.5L31.2,149.4a4.4,4.4,0,0,1,.4-4,4.8,4.8,0,0,1,2.3-1.9,5.8,5.8,0,0,1,1.4-.3l55.9-5.6A4.3,4.3,0,0,1,95.8,140.2Zm-2.7-17.3a4,4,0,0,1,1.9,4.7,4.5,4.5,0,0,1-4.2,3.5l-55.9,5.6a4.4,4.4,0,0,1-3.9-1.4,4,4,0,0,1-.9-3.9L38.8,99a4.8,4.8,0,0,1,2.8-3.1,5,5,0,0,1,3.6-.1l.6.3Zm-10-60.2,20.4,48.9a4.4,4.4,0,0,1-1.3,5.1,4.7,4.7,0,0,1-5.5.6L49.5,90.5a4.2,4.2,0,0,1-2.2-3.4A4.5,4.5,0,0,1,49,83.4L75.8,61.2a5.7,5.7,0,0,1,1.3-.8,5.4,5.4,0,0,1,2.8-.2A4.3,4.3,0,0,1,83.1,62.7Z" fill="#f7941d"/><path d="M100.8,123.8v.4l1-.2-.2-.5Z" fill="#f7941d"/><path d="M110.8,147.8v.2l.8-.5v-.2Z" fill="#f7941d"/><path d="M250,35a4.6,4.6,0,0,1,1.5,3.6,11.2,11.2,0,0,1-.5,2.7L175.9,221.8c-1.1,2.4-2.8,3.6-5.2,3.6a5.5,5.5,0,0,1-3.2-1,4.7,4.7,0,0,1-2-2.6L91,42.1a6.7,6.7,0,0,1-.8-3.3,5.1,5.1,0,0,1,1.5-3.7,5,5,0,0,1,3.7-1.5c2.7,0,4.7,1.5,6,4.4L171,205.4,240.8,37.2c1.3-2.4,3-3.6,5.2-3.6A5.7,5.7,0,0,1,250,35Z" fill="#009444"/><path d="M78.5,39.1l1.2,2.8a5.6,5.6,0,0,1-3.3,7.5l-1.3.5-2.3.9a91.4,91.4,0,0,0,70.4,168.6l2.2-1,1.4-.6a5.4,5.4,0,0,1,4.5-.1,5.7,5.7,0,0,1,3.1,3l1.2,2.8a3.3,3.3,0,0,1-1.6,4.2l-6.2,2.9A103.6,103.6,0,0,1,9.7,167.5C-7.1,116.9,18.1,61.1,67.2,40c2.4-1,4.8-2,7.2-2.8A3.4,3.4,0,0,1,78.5,39.1Z" fill="#f7941d"/><path d="M110.8,147.8v.2l.8-.5v-.2Zm-8.5-5.4v.4h.5a.4.4,0,0,0,.1-.3Z" fill="#f7941d"/><path d="M102.3,142.4v.4h.5a.4.4,0,0,0,.1-.3Z" fill="#f7941d"/><path d="M100.8,123.8v.4l1-.2-.2-.5Z" fill="#f7941d"/><path d="M81.6,53.8a12,12,0,0,0-10.1,2.6L44.7,78.6a11.1,11.1,0,0,0-4.1,9.2,4.1,4.1,0,0,0,.3,1.6l-1.7.6a11.3,11.3,0,0,0-6.9,7.7l-8.7,32.4a9.7,9.7,0,0,0,2.2,9.5,6.8,6.8,0,0,0,1.2,1.2l-1.1,1.3a10.6,10.6,0,0,0-1,9.9l12.7,30.3a10.5,10.5,0,0,0,7.7,6.2l1.7.2a8.6,8.6,0,0,0,0,1.6,10.3,10.3,0,0,0,5.2,8.4l29.2,16.5a11.3,11.3,0,0,0,10.3.5h0l1.6-.8a6.4,6.4,0,0,0,1,1.3,10.8,10.8,0,0,0,9.5,3.6l34.6-3.5a10.6,10.6,0,0,0,3.5-.9,11.6,11.6,0,0,0,5.4-4.4,9.2,9.2,0,0,0,1.5-3.6,10.7,10.7,0,0,0,.3-2.5,10,10,0,0,0-.8-3.8l-20.4-49a10.2,10.2,0,0,0-2.2-3.2,11.2,11.2,0,0,0-9.1-3.2,13.9,13.9,0,0,0-5.1,1.6v.2l-.8.5v-.2l.7-.5a11.8,11.8,0,0,0-3.6-3.4,11.4,11.4,0,0,0-5-1.4.4.4,0,0,1-.1.3h-.5v-.4h.6a9.3,9.3,0,0,0-.8-4.9,10.9,10.9,0,0,0-2.9-4.1,11.5,11.5,0,0,0,2.4-4.5,10.6,10.6,0,0,0,.2-5l-1,.2v-.4l.8-.3.2.5,1.5-.5a12.7,12.7,0,0,0,3.1-2,10.6,10.6,0,0,0,4.2-8.7,8.4,8.4,0,0,0-.8-3.8L89.4,60.1A8.5,8.5,0,0,0,87.3,57a10.6,10.6,0,0,0-2-1.7A11.1,11.1,0,0,0,81.6,53.8Zm3.5,155.8L55.9,193a3.7,3.7,0,0,1-2.1-3.3,4.6,4.6,0,0,1,1.6-3.8l43.3-35.8h.1l.3-.3,1-.5a4.5,4.5,0,0,1,4.1.3,4,4,0,0,1,2,4.7L92.1,206.7l-.3.7a5.3,5.3,0,0,1-2.5,2.4A4.7,4.7,0,0,1,85.1,209.6Zm36.5-54.8L142,203.7a4.1,4.1,0,0,1-.4,4,4.5,4.5,0,0,1-3.6,2.2l-34.6,3.5a4.7,4.7,0,0,1-3.9-1.5,4.2,4.2,0,0,1-.9-3.9l14.1-52.3a4.8,4.8,0,0,1,2.8-3.2l1.5-.3A4.3,4.3,0,0,1,121.6,154.8ZM95.8,140.2a4.2,4.2,0,0,1-1.3,5,.1.1,0,0,1-.1.1L51.1,181.1a4.4,4.4,0,0,1-4.1,1,4,4,0,0,1-3.1-2.5L31.2,149.4a4.4,4.4,0,0,1,.4-4,4.8,4.8,0,0,1,2.3-1.9,5.8,5.8,0,0,1,1.4-.3l55.9-5.6A4.3,4.3,0,0,1,95.8,140.2Zm-2.7-17.3a4,4,0,0,1,1.9,4.7,4.5,4.5,0,0,1-4.2,3.5l-55.9,5.6a4.4,4.4,0,0,1-3.9-1.4,4,4,0,0,1-.9-3.9L38.8,99a4.8,4.8,0,0,1,2.8-3.1,5,5,0,0,1,3.6-.1l.6.3Zm-10-60.2,20.4,48.9a4.4,4.4,0,0,1-1.3,5.1,4.7,4.7,0,0,1-5.5.6L49.5,90.5a4.2,4.2,0,0,1-2.2-3.4A4.5,4.5,0,0,1,49,83.4L75.8,61.2a5.7,5.7,0,0,1,1.3-.8,5.4,5.4,0,0,1,2.8-.2A4.3,4.3,0,0,1,83.1,62.7Z" fill="#f7941d"/><path d="M100.8,123.8v.4l1-.2-.2-.5Z" fill="#f7941d"/><path d="M110.8,147.8v.2l.8-.5v-.2Z" fill="#f7941d"/></svg>