<svg id="Layer_1" data-name="Layer 1" xmlns="http://www.w3.org/2000/svg" width="32" height="32" viewBox="0 0 32 32"><title>logo-32</title><path d="M31.1,3.6c.1.1.1.2.1.4v.3L21.9,26.6a.7.7,0,0,1-.6.4h-.4l-.2-.3L11.5,4.4c-.1-.1-.1-.2-.1-.4a.5.5,0,0,1,.2-.4c.1-.2.2-.2.4-.2a.9.9,0,0,1,.8.5l8.5,20.6L29.9,3.8a.8.8,0,0,1,.7-.4A.6.6,0,0,1,31.1,3.6Z" fill="#009444"/><path d="M10,4.1v.3a.6.6,0,0,1-.4.9H9.2a11.2,11.2,0,0,0-6,14.7,11.4,11.4,0,0,0,14.7,6.1l.3-.2h.7a.8.8,0,0,1,.4.4v.4a.4.4,0,0,1-.2.5l-.7.3A12.7,12.7,0,0,1,8.6,4.2l.9-.4A.5.5,0,0,1,10,4.1Z" fill="#f7941d"/><path d="M13.9,17.4h0Zm-1-.6Z" fill="#f7941d"/><path d="M12.9,16.8Z" fill="#f7941d"/><path d="M12.7,14.5Z" fill="#f7941d"/><path d="M10.3,5.9a1.3,1.3,0,0,0-1.2.3L5.8,8.9a1.3,1.3,0,0,0-.5,1.2v.2H5.1a1.4,1.4,0,0,0-.8,1l-1.1,4a1.1,1.1,0,0,0,.3,1.1c0,.1.1.1.1.2H3.5A1.2,1.2,0,0,0,3.4,18l1.5,3.7a1.1,1.1,0,0,0,1,.7c0,.1.1.1.2.1v.2a1.1,1.1,0,0,0,.6,1l3.6,2a1.2,1.2,0,0,0,1.3.1h.2c0,.1.1.1.1.2a1.3,1.3,0,0,0,1.2.4l4.2-.4h.5a1.2,1.2,0,0,0,.6-.6.8.8,0,0,0,.2-.4v-.3a.7.7,0,0,0-.1-.5L16,18a.5.5,0,0,0-.2-.4,1.3,1.3,0,0,0-1.2-.4l-.6.2h0a.8.8,0,0,0-.4-.4l-.6-.2h0c0-.2-.1-.4-.1-.6a1,1,0,0,0-.4-.5l.3-.6a.6.6,0,0,0,0-.6H13l.4-.2a1.6,1.6,0,0,0,.5-1.1.6.6,0,0,0-.1-.4L11.3,6.6,11,6.3l-.2-.2ZM10.8,25,7.2,23c-.2-.1-.3-.2-.3-.4s.1-.3.2-.5l5.3-4.4h.2a.4.4,0,0,1,.5.1c.2,0,.3.3.3.5l-1.8,6.5h0l-.3.3Zm4.5-6.7,2.5,6a.7.7,0,0,1-.1.5c-.1.2-.2.3-.4.3l-4.3.4a.6.6,0,0,1-.5-.2.6.6,0,0,1-.1-.4l1.8-6.5c0-.2.2-.3.3-.4h.2A.6.6,0,0,1,15.3,18.3Zm-3.2-1.8c.1.2.1.4-.2.6h0L6.6,21.5a.6.6,0,0,1-.5.2l-.4-.3L4.1,17.6a1.1,1.1,0,0,1,.1-.5l.3-.2h.1l6.9-.7A.6.6,0,0,1,12.1,16.5Zm-.4-2.1c.3.1.3.4.3.6s-.2.4-.5.4l-6.9.7-.5-.2a.4.4,0,0,1-.1-.5l1.1-4a.3.3,0,0,1,.3-.3h.5ZM10.5,7,13,13a.6.6,0,0,1-.1.6.8.8,0,0,1-.7.1L6.4,10.4a.5.5,0,0,1-.3-.4.8.8,0,0,1,.2-.5L9.6,6.8h.2a.2.2,0,0,1,.3,0C10.3,6.7,10.4,6.8,10.5,7Z" fill="#f7941d"/><path d="M12.7,14.5Z" fill="#f7941d"/><path d="M13.9,17.4h0Z" fill="#f7941d"/></svg>