<svg id="Layer_1" data-name="Layer 1" xmlns="http://www.w3.org/2000/svg" width="452.9" height="100.5" viewBox="0 0 452.9 100.5"><title>veganize-logo</title><path d="M95.7,6.2a1.8,1.8,0,0,1,.6,1.3,4.4,4.4,0,0,1-.2,1L68.6,74.7A2.2,2.2,0,0,1,66.7,76a2.8,2.8,0,0,1-1.2-.4,1.6,1.6,0,0,1-.7-.9L37.5,8.8a2.7,2.7,0,0,1-.3-1.2,1.9,1.9,0,0,1,.5-1.3,1.8,1.8,0,0,1,1.4-.6,2.4,2.4,0,0,1,2.2,1.6L66.8,68.6,92.4,7a2.2,2.2,0,0,1,1.9-1.3A2,2,0,0,1,95.7,6.2Z" fill="#009444"/><path d="M146.7,64.5a1.8,1.8,0,0,1,.5,1.2,2.1,2.1,0,0,1-.4,1.2,27.7,27.7,0,0,1-8.3,7.3A21.7,21.7,0,0,1,128,77a27.9,27.9,0,0,1-13.4-3.2,22.8,22.8,0,0,1-9-9.2,27.5,27.5,0,0,1-3.3-13.7,29.9,29.9,0,0,1,3.2-14.1,22.9,22.9,0,0,1,8.3-9.3A21.4,21.4,0,0,1,125,24.3a24.3,24.3,0,0,1,11,2.5,21.6,21.6,0,0,1,8.2,7.7c2.2,3.4,3.3,7.6,3.5,12.7a2,2,0,0,1-.6,1.4,1.8,1.8,0,0,1-1.5.7H106.2v1.3A25.7,25.7,0,0,0,108.7,62a19.9,19.9,0,0,0,7.4,8.1A21.8,21.8,0,0,0,128,73.2a18.5,18.5,0,0,0,9.1-2.4,19.2,19.2,0,0,0,6.6-6,2.2,2.2,0,0,1,1.7-.9A1.8,1.8,0,0,1,146.7,64.5ZM117.4,30.3a19.6,19.6,0,0,0-6.8,5.8,21.7,21.7,0,0,0-4,9.4h36.9v-.9a16.7,16.7,0,0,0-3.2-8.8,18.3,18.3,0,0,0-6.8-5.6,19.8,19.8,0,0,0-8.5-1.9A16.9,16.9,0,0,0,117.4,30.3Z" fill="#009444"/><path d="M204.8,26.5a1.9,1.9,0,0,1,.5,1.4V71a27,27,0,0,1-3.1,13.3,21.4,21.4,0,0,1-8.7,8.7,26.6,26.6,0,0,1-12.8,3,33.4,33.4,0,0,1-8.2-1,23.3,23.3,0,0,1-6.7-2.7c-1.8-1.1-2.7-2.3-2.7-3.4a1.9,1.9,0,0,1,.5-1.3,1.7,1.7,0,0,1,1.2-.5,3.3,3.3,0,0,1,1.8,1,12.1,12.1,0,0,0,3.1,2.1,28.3,28.3,0,0,0,11.2,2c6.3,0,11.2-1.9,14.9-5.8s5.5-9,5.5-15.4V64.1a19.9,19.9,0,0,1-8.3,9.7A24.4,24.4,0,0,1,181.1,77a23,23,0,0,1-12.4-3.5,25.2,25.2,0,0,1-8.8-9.5,28.4,28.4,0,0,1-3.1-13.4,28.6,28.6,0,0,1,3.1-13.5,24.9,24.9,0,0,1,8.8-9.4,22.9,22.9,0,0,1,12.4-3.4,22.6,22.6,0,0,1,12.3,3.6,20.6,20.6,0,0,1,7.9,8.5V27.9a2,2,0,0,1,.6-1.4,1.8,1.8,0,0,1,1.4-.6A2,2,0,0,1,204.8,26.5Zm-13,43.8a20.2,20.2,0,0,0,7.3-8,25.8,25.8,0,0,0,2.6-11.7,26.6,26.6,0,0,0-2.6-11.8,19.9,19.9,0,0,0-7.3-7.9,20.1,20.1,0,0,0-10.5-2.8A19.7,19.7,0,0,0,170.8,31a20.1,20.1,0,0,0-7.3,8,24.8,24.8,0,0,0-2.7,11.6,24.1,24.1,0,0,0,2.7,11.5,20.4,20.4,0,0,0,7.3,8.1,18.9,18.9,0,0,0,10.5,3A20.2,20.2,0,0,0,191.8,70.3Z" fill="#009444"/><path d="M264,26.5a2,2,0,0,1,.6,1.4V74a1.7,1.7,0,0,1-.7,1.4,1.9,1.9,0,0,1-2.8,0,2,2,0,0,1-.6-1.4V64.9a21.1,21.1,0,0,1-7.7,8.6A20.5,20.5,0,0,1,241.3,77a21.9,21.9,0,0,1-12-3.5A24,24,0,0,1,221,64a30.5,30.5,0,0,1-3-13.6A28.2,28.2,0,0,1,221.1,37a22.8,22.8,0,0,1,8.3-9.3,21.5,21.5,0,0,1,11.9-3.4A20.8,20.8,0,0,1,253,27.7a19,19,0,0,1,7.5,9.1V27.9a2,2,0,0,1,.6-1.4,1.8,1.8,0,0,1,1.4-.6A2,2,0,0,1,264,26.5ZM251.5,70.2a19.9,19.9,0,0,0,6.9-8.2,26,26,0,0,0,2.5-11.6,25.3,25.3,0,0,0-2.5-11.3,19.3,19.3,0,0,0-6.9-8,17.6,17.6,0,0,0-10-3,18.3,18.3,0,0,0-10,2.9,19.2,19.2,0,0,0-7,7.9A25.2,25.2,0,0,0,222,50.4,26,26,0,0,0,224.5,62a20.7,20.7,0,0,0,6.9,8.2,18.3,18.3,0,0,0,20.1,0Z" fill="#009444"/><path d="M317.4,29.6c3,3.5,4.5,8,4.5,13.7V74a2,2,0,0,1-.6,1.4,1.8,1.8,0,0,1-1.4.6,1.7,1.7,0,0,1-1.4-.6,2,2,0,0,1-.6-1.4V43.7a17.4,17.4,0,0,0-3.5-11.2c-2.4-2.9-6-4.4-10.8-4.4a19.2,19.2,0,0,0-8.7,2.1,19.6,19.6,0,0,0-7,5.7,12.7,12.7,0,0,0-2.7,7.8V74a2.1,2.1,0,0,1-2,2,1.7,1.7,0,0,1-1.4-.6,2,2,0,0,1-.6-1.4V27.9a2.1,2.1,0,0,1,2-2,2,2,0,0,1,1.5.6,2.4,2.4,0,0,1,.5,1.4v6.7a22.7,22.7,0,0,1,8.2-7.4A22,22,0,0,1,304,24.3C309.9,24.3,314.4,26,317.4,29.6Z" fill="#009444"/><path d="M338,16.6a3.2,3.2,0,0,1-.9-2.3v-.8a3,3,0,0,1,1-2.4,3.7,3.7,0,0,1,2.6-.9,3.6,3.6,0,0,1,2.4.9,3.2,3.2,0,0,1,.9,2.4v.8a3.2,3.2,0,0,1-.9,2.3,3.7,3.7,0,0,1-2.5.9A3.7,3.7,0,0,1,338,16.6Zm4,58.8a2,2,0,0,1-1.4.6,1.7,1.7,0,0,1-1.4-.6,2,2,0,0,1-.6-1.4V26.3a2.1,2.1,0,0,1,2-2,2,2,0,0,1,1.5.6,2.4,2.4,0,0,1,.5,1.4V74A2,2,0,0,1,342,75.4Z" fill="#009444"/><path d="M393.3,27.7,361.6,72.2h29.2a2,2,0,0,1,1.4.6,1.7,1.7,0,0,1,0,2.6,2,2,0,0,1-1.4.6H358.1a2.1,2.1,0,0,1-1.5-.7A2.2,2.2,0,0,1,356,74a1.8,1.8,0,0,1,.5-1.3l31.7-44.6H361.1a2.2,2.2,0,0,1-1.4-.5,1.9,1.9,0,0,1,0-2.8,2.2,2.2,0,0,1,1.4-.5h30.7a1.6,1.6,0,0,1,1.3.6,2.7,2.7,0,0,1,.7,1.4A2.7,2.7,0,0,1,393.3,27.7Z" fill="#009444"/><path d="M447,64.5a1.8,1.8,0,0,1,.5,1.2,2.1,2.1,0,0,1-.4,1.2,26.5,26.5,0,0,1-8.3,7.3A21.4,21.4,0,0,1,428.3,77,27.3,27.3,0,0,1,415,73.8a22.4,22.4,0,0,1-9.1-9.2,27.5,27.5,0,0,1-3.3-13.7,29.9,29.9,0,0,1,3.2-14.1,22.4,22.4,0,0,1,8.4-9.3,20.8,20.8,0,0,1,11.1-3.2,24.3,24.3,0,0,1,11,2.5,21.8,21.8,0,0,1,8.3,7.7c2.1,3.4,3.2,7.6,3.4,12.7a2,2,0,0,1-.6,1.4,1.7,1.7,0,0,1-1.4.7H406.5v1.3A27.2,27.2,0,0,0,409,62a19.5,19.5,0,0,0,7.5,8.1,21.2,21.2,0,0,0,11.8,3.1,18.5,18.5,0,0,0,9.1-2.4,19.6,19.6,0,0,0,6.7-6,2,2,0,0,1,1.7-.9A1.7,1.7,0,0,1,447,64.5ZM417.7,30.3a19.6,19.6,0,0,0-6.8,5.8,21.7,21.7,0,0,0-4,9.4h37v-.9a17.6,17.6,0,0,0-10.1-14.4,19.5,19.5,0,0,0-8.5-1.9A16.9,16.9,0,0,0,417.7,30.3Z" fill="#009444"/><path d="M32.9,7.7l.4,1.1a1.9,1.9,0,0,1-1.2,2.7l-.5.2-.8.3A33.5,33.5,0,1,0,56.6,73.8l.8-.4.5-.2a2,2,0,0,1,1.7-.1,1.9,1.9,0,0,1,1.1,1.2l.4,1a1.1,1.1,0,0,1-.5,1.5l-2.3,1.1A37.9,37.9,0,0,1,28.8,8.1L31.4,7A1.2,1.2,0,0,1,32.9,7.7Z" fill="#f7941d"/><path d="M44.7,47.6H45Zm-3.1-2h0Z" fill="#f7941d"/><path d="M41.6,45.6h0Z" fill="#f7941d"/><path d="M41.1,38.8h0Z" fill="#f7941d"/><path d="M34.1,13.1a4.7,4.7,0,0,0-3.8,1l-9.8,8.1A4.2,4.2,0,0,0,19,25.6c0,.2.1.4.1.6l-.6.2A3.9,3.9,0,0,0,16,29.2L12.8,41a3.6,3.6,0,0,0,.8,3.6l.4.4-.3.5a3.6,3.6,0,0,0-.4,3.6l4.6,11.1a3.7,3.7,0,0,0,2.9,2.2h.6c0,.2-.1.4,0,.6a3.5,3.5,0,0,0,1.9,3.1l10.7,6a3.9,3.9,0,0,0,3.8.2h0l.5-.3.4.5a3.8,3.8,0,0,0,3.5,1.3l12.6-1.2,1.3-.4a4.5,4.5,0,0,0,2-1.6,3.8,3.8,0,0,0,.6-1.3c0-.3.1-.6.1-.9a3.2,3.2,0,0,0-.3-1.4L51,49.1a4.4,4.4,0,0,0-.8-1.1,3.9,3.9,0,0,0-3.3-1.2,6,6,0,0,0-1.9.6h-.3l.3-.2a5.3,5.3,0,0,0-1.3-1.3,4.1,4.1,0,0,0-1.9-.5h0a3.7,3.7,0,0,0-.2-1.8,5.8,5.8,0,0,0-1.1-1.5,4.2,4.2,0,0,0,.9-1.6,4.1,4.1,0,0,0,0-1.9h0l.6-.2a2.6,2.6,0,0,0,1.1-.7,3.9,3.9,0,0,0,1.6-3.2,3.9,3.9,0,0,0-.3-1.4L36.9,15.4a2.8,2.8,0,0,0-.8-1.1,1.3,1.3,0,0,0-.7-.6A3.8,3.8,0,0,0,34.1,13.1Zm1.2,57.1L24.6,64.1a1.4,1.4,0,0,1-.7-1.2,1.4,1.4,0,0,1,.6-1.4L40.3,48.4h0a.1.1,0,0,0,.1-.1l.4-.2a1.9,1.9,0,0,1,1.5.1,1.5,1.5,0,0,1,.8,1.7L37.9,69.1c0,.1-.1.2-.1.3a1.8,1.8,0,0,1-1,.9A2,2,0,0,1,35.3,70.2ZM48.7,50.1,56.2,68a1.6,1.6,0,0,1-.2,1.5,1.8,1.8,0,0,1-1.3.8L42,71.6a2,2,0,0,1-1.4-.6,1.4,1.4,0,0,1-.3-1.4l5.2-19.2a1.5,1.5,0,0,1,.9-1.1l.6-.2A1.7,1.7,0,0,1,48.7,50.1Zm-9.5-5.3a1.4,1.4,0,0,1-.4,1.8h-.1L22.9,59.7a1.7,1.7,0,0,1-1.5.4,1.4,1.4,0,0,1-1.2-.9L15.6,48.1a1.4,1.4,0,0,1,.1-1.4,1.6,1.6,0,0,1,.9-.7h.5l20.5-2.1A1.4,1.4,0,0,1,39.2,44.8Zm-1-6.4a1.6,1.6,0,0,1,.8,1.8,1.8,1.8,0,0,1-1.6,1.2L16.9,43.5a1.6,1.6,0,0,1-1.4-.5,1.6,1.6,0,0,1-.3-1.5l3.2-11.8a1.9,1.9,0,0,1,1-1.2,2.9,2.9,0,0,1,1.3,0h.2Zm-3.6-22,7.5,17.9a1.8,1.8,0,0,1-.5,1.9,2,2,0,0,1-2,.2L22.3,26.6a1.6,1.6,0,0,1-.8-1.3,2,2,0,0,1,.6-1.4l9.8-8.1.5-.3h1A1.4,1.4,0,0,1,34.6,16.4Z" fill="#f7941d"/><path d="M41.1,38.8h0Z" fill="#f7941d"/><path d="M44.7,47.6H45Z" fill="#f7941d"/></svg>