<svg xmlns="http://www.w3.org/2000/svg" width="3.6in" height="3.6in" viewBox="0 0 256 256"><path fill="#fffffe" d="M234.2 39.1a21.4 21.4 0 0 0-21.3-17.6H43.1a23 23 0 0 0-5.8.7 21.5 21.5 0 0 0-15.8 20.9v169.8a19.9 19.9 0 0 0 2.6 10.4c4.2 7.4 10.7 11.2 19.2 11.2h169.3a20.8 20.8 0 0 0 4.3-.3 21.4 21.4 0 0 0 17.6-21.2V43.1a26 26 0 0 0-.3-4zM195.3 79h-14.8a19.9 19.9 0 0 0-4.2.4c-3.4.8-5.1 2.7-5.5 6.1s-.2 4.3-.2 6.5v10.7c0 .6.1.8.8.8h20.7c.8 0 .9.2.9.9-.3 5.5-.5 11.1-.8 16.6l-.3 6.5c0 .6-.3.5-.7.5h-18.6c-.8 0-.9.2-.9.9v72.7c0 .8-.2 1-1 1h-32.3c-.7 0-.8-.1-.8-.9v-72.8c0-.7-.2-.9-.9-.9h-11.1c-.6 0-.8-.1-.8-.7v-24.2c0-.6.2-.7.7-.7h11.2c.7 0 .9-.2.9-.9 0-5.7-.1-11.3 0-17a45 45 0 0 1 2.4-14.4c2.7-7.5 8-12.2 15.6-14.6a51.5 51.5 0 0 1 15.1-2.1h24.7c.6 0 .8.2.8.9 0 7.9-.1 15.9 0 23.8 0 .8-.3.9-.9.9z"/></svg>