<svg xmlns="http://www.w3.org/2000/svg" width="3.6in" height="3.6in" viewBox="0 0 256 256"><path fill="#fffffe" d="M228.8 128.9V82.1a58.3 58.3 0 0 0-1.2-11.8 56.2 56.2 0 0 0-17.1-30.6 55.9 55.9 0 0 0-24-13.7 24.4 24.4 0 0 0-2.6-.6l-1.3-.3a63.8 63.8 0 0 0-10.8-1.1H78.3a56.7 56.7 0 0 0-10.1 1 55.4 55.4 0 0 0-31.8 17.3C26.3 53.2 20.9 66.1 20.8 80.9c-.1 31.2 0 62.4 0 93.6v1.3c.1.8.1 1.7.2 2.5s.2 2.6.4 3.8a21.7 21.7 0 0 0 .4 2.5c.2 1.4.5 2.8.8 4.1a55.4 55.4 0 0 0 7.5 17 57.1 57.1 0 0 0 6.5 8.2l1.1 1.1a62.3 62.3 0 0 0 5.5 4.9l2.3 1.8 1.2.8a48.5 48.5 0 0 0 4.9 2.9c2.1 1.1 4.2 2.1 6.4 3l2.7.9 4.1 1.1 4.2.8 4.4.6h100.4l3.9-.3 2.4-.3 1.2-.3a56 56 0 0 0 22-8.8 55 55 0 0 0 8.7-7.4l.9-.8a56.6 56.6 0 0 0 15.9-39.4c.1-15.1 0-30.3 0-45.6zm-104.1 56.9a57.8 57.8 0 1 1 57.8-57.8 57.8 57.8 0 0 1-57.8 57.8zM194 70.2a11.6 11.6 0 1 1 .3-23.1 11.6 11.6 0 1 1-.3 23.1z"/><path fill="#fffffe" d="M159.5 128a34.7 34.7 0 1 1-34.7-34.7 34.9 34.9 0 0 1 34.7 34.7z"/></svg>