<svg xmlns="http://www.w3.org/2000/svg" width="3.6in" height="3.6in" viewBox="0 0 256 256"><path fill="#fffffe" d="M53.7 171.8zm6.1-63.9l1.7.6zm10.8 29.6l3 .7zm2.7-25.7l-3.9-.7 3.9.7zm2.4-29.7a.2.2 0 0 0 .2.2c0 .1.1.1.2.2l1.5 1.3zM88.2 91l3.8 2.1zm62.7-26.4l-1.2.3 1.2-.3zm22.2 3.8l2.2 1.5zm5.8 4.8l-.6-.6.6.6zm6.2 45.7c.5-1.7.8-3.4 1.2-5.1-.4 1.7-.7 3.4-1.2 5.1zm-.2-35.7l4.5-1zm1.8 28c-.1.9-.3 1.8-.4 2.6.1-.8.3-1.7.4-2.6l.3-1.7zm7-42.4l.4-.3.7-.3zm-.6.3l.3-.2h.3l-1.2.6zm2.3-1.3l-.4.3.4-.2zm1.8-.9l-1.6.8a.5.5 0 0 0 .4-.2l1.2-.6c0-.1.1-.1.2-.2zm-5.7 2.9l.4-.2h.3zm-31.9-5.7zM156 64z"/><path fill="#fffffe" d="M234.7 43.1a19.9 19.9 0 0 0-.4-4.2 21.3 21.3 0 0 0-21.2-17.6H42.9a22.8 22.8 0 0 0-7.7 1.4A21.3 21.3 0 0 0 21.3 43v169.8a22.5 22.5 0 0 0 .4 4.4A21.3 21.3 0 0 0 43 234.7h170a19.6 19.6 0 0 0 4.1-.4 21.3 21.3 0 0 0 17.6-21.4zm-33.4 36.7l-1.1 1.6a80.9 80.9 0 0 1-11.6 11.8h-.2a2.2 2.2 0 0 0-.7 1.7c.1 3.1 0 6.2-.2 9.3a21.1 21.1 0 0 1-.2 2.6l-.3 2.6-.3 1.7c-.1.9-.3 1.8-.4 2.6s-.7 3.4-1.2 5.1a90.9 90.9 0 0 1-4 12.5 93.8 93.8 0 0 1-16.1 26 76.2 76.2 0 0 1-6.3 6.4l-2.2 1.9-1.1 1-2.3 1.8-2.3 1.7-1.2.8-2.3 1.5-2.3 1.5-4.8 2.6-2.5 1.1-2.5 1.2-2.6 1-2.6.9-4.3 1.4a89.9 89.9 0 0 1-29.2 3.4h-3.3l-2.8-.3-2.8-.4-1.8-.3-2.6-.4-5-1.2a92.5 92.5 0 0 1-12.1-4.4l-6-2.9-6-3.2-.3-.2v-.2h9.8l3.4-.3h.6l1.8-.2h.8l1.8-.3 5.5-1.3 4.3-1.4 2.8-1.1A75.6 75.6 0 0 0 99 159c-14.3-.8-23.2-8.6-28.6-21.2l.2-.3 3 .7c3.5 1 6.9.4 10.3-.6l-1.2-.3a36.5 36.5 0 0 1-10.3-5l-1.6-1.3-2.4-2.2a15.4 15.4 0 0 1-1.7-1.9 28.7 28.7 0 0 1-6.9-19l1.7.6a48.4 48.4 0 0 0 4.9 1.8l1.7.5 1.3.3 3.9.7-.2-.2-.2-.2a43.2 43.2 0 0 1-9.8-12.2 31 31 0 0 1-3.3-14v-1.3a30.3 30.3 0 0 1 .2-3.1 6.9 6.9 0 0 0 .2-1.3 3.6 3.6 0 0 0 .2-1l.3-1.1a18.9 18.9 0 0 1 2.1-5.1l.7-1.2.5-.6a114.9 114.9 0 0 0 9.7 10l.9.7.6.5.3.3h.2l1.9 1.7 1.3 1 1.8 1.3a74.3 74.3 0 0 0 7.5 5l3.8 2.1a87.3 87.3 0 0 0 35 9.4c-.2-1-.3-1.9-.5-2.8-1.6-7-.1-13.6 3.3-19.8a29.9 29.9 0 0 1 10.9-11.4l1.4-.9 1-.5 1.6-.7 1.6-.6 1.1-.3 2.3-.6 1.2-.3h.6l1.1-.2H163l.9.2 2.1.5.8.3 2.5.9 1.5.8a16.7 16.7 0 0 1 2.3 1.2l2.2 1.5 1.1.9.6.5 1.3 1.3.6.6h.1l.7.2 4.6-1 3.4-1.1 2.4-.9.7-.3c0-.1.1-.1.2-.1l.5-.3.7-.3h.3l1.2-.6 1.1-.6h.2l.4-.3h.2l1.6-.8.2-.2 1-.6c-2.3 7.6-7.4 12.7-13.6 16.9v.2l4.5-.9 1.1-.2 2.2-.6 1.1-.3 4.3-1.4 4.3-1.6h.1z"/><path fill="#000001" d="M59.3 171.8zm2.2-63.3l-1.7-.6zm12.1 29.7l-3-.7zm-.3-26.4l-3.9-.7 3.9.7zM92 93.1L88.2 91zm59.5-28.6h-.6l-1.2.3 1.2-.3zm2.5-.3zm1.7-.2zm1.8 0zm1.6 0zm1.6.2zm14.6 5.7l-2.2-1.5zm3.7 3.4h-.1l-.6-.6.6.6zm7.3 40.5c-.4 1.7-.7 3.4-1.2 5.1.5-1.7.8-3.4 1.2-5.1zm.7-4.3l-.3 1.7c-.1.9-.3 1.8-.4 2.6.1-.8.3-1.7.4-2.6zm2.4-27.2l-4.5 1zm2.1-12.5l.7-.3h-.3l-.9.5zm3.3-1.6l-.7.3-.4.3zm.6-.4l-.4.2zm.2-.1zm0 0a.5.5 0 0 0 .4-.2.5.5 0 0 1-.4.2zm1.8-1c-.1.1-.2.1-.2.2l-1.2.6 1.2-.6z"/></svg>